<?xml version="1.0" standalone="no"?>
<!DOCTYPE svg PUBLIC "-//W3C//DTD SVG 20010904//EN"
 "http://www.w3.org/TR/2001/REC-SVG-20010904/DTD/svg10.dtd">
<svg version="1.0" xmlns="http://www.w3.org/2000/svg"
 width="216.000000pt" height="208.000000pt" viewBox="0 0 216.000000 208.000000"
 preserveAspectRatio="xMidYMid meet">
<metadata>
Created by potrace 1.10, written by Peter Selinger 2001-2011
</metadata>
<g transform="translate(0.000000,208.000000) scale(0.100000,-0.100000)"
fill="#000000" stroke="none">
<path d="M483 1775 c-11 -8 -13 -102 -11 -535 l3 -525 243 -3 242 -2 0 -115
c0 -108 1 -115 20 -115 19 0 20 -7 20 -135 l0 -135 328 2 327 3 3 573 c2 536
3 572 20 572 15 0 17 13 15 137 -2 116 -4 138 -17 135 -12 -2 -16 11 -18 60
-3 55 -5 63 -23 63 -18 0 -20 -8 -23 -62 -3 -55 -6 -63 -22 -63 -19 0 -20 -8
-20 -135 0 -128 1 -135 20 -135 20 0 20 -7 20 -550 l0 -550 -285 0 -285 0 0
110 c0 103 1 110 20 110 19 0 20 7 20 115 0 103 2 115 18 115 15 0 17 -11 14
-115 -4 -111 -3 -115 17 -115 19 0 21 -6 21 -70 l0 -70 175 2 176 3 -1 508 c0
502 0 507 20 507 19 0 20 6 20 139 0 134 -1 139 -20 134 -19 -5 -20 0 -20 62
0 58 -2 66 -17 63 -15 -3 -19 -16 -21 -67 -3 -57 -5 -63 -23 -58 -18 5 -19 -1
-19 -134 0 -132 1 -139 20 -139 20 0 20 -7 20 -485 l0 -485 -135 0 -134 0 1
45 c0 39 3 45 22 45 20 0 21 3 18 115 l-4 115 29 0 c16 0 34 5 41 12 14 14 17
1024 4 1046 -11 16 -797 23 -819 7z m782 -290 l0 -255 -122 0 -123 0 2 54 c1
32 -3 60 -11 69 -11 14 -1 28 68 97 45 44 81 85 81 91 0 5 -7 12 -16 16 -11 4
-45 -23 -113 -91 l-96 -96 -81 0 c-99 0 -107 -7 -102 -85 l3 -55 -122 0 -123
0 0 255 0 255 378 0 377 0 0 -255z m235 5 c0 -101 -4 -117 -27 -99 -9 8 -13
38 -13 99 0 103 6 126 26 109 10 -8 14 -38 14 -109z m150 12 c0 -60 -3 -112
-7 -115 -3 -4 -12 -2 -20 4 -9 8 -13 37 -13 93 0 94 7 126 26 126 11 0 14 -23
14 -108z m-775 -196 c-30 -45 23 -51 55 -6 33 46 50 39 50 -20 l0 -50 -90 0
-90 0 0 48 0 48 45 2 c45 2 45 1 30 -22z m386 -337 l0 -214 -375 -3 -376 -2 0
217 0 218 376 -1 375 -2 0 -213z m-226 -354 c0 -84 -2 -95 -17 -95 -16 0 -18
11 -18 95 0 84 2 95 18 95 15 0 17 -11 17 -95z m155 0 c0 -76 -3 -95 -14 -95
-12 0 -15 21 -18 95 -3 85 -1 95 15 95 15 0 17 -11 17 -95z" fill="blue"/>
<path d="M871 1661 c-8 -5 -11 -25 -9 -52 2 -36 7 -44 23 -44 17 0 20 8 23 46
3 48 -11 66 -37 50z" fill="blue"/>
<path d="M724 1625 c-7 -17 26 -87 43 -93 22 -7 26 28 8 69 -18 40 -41 51 -51
24z" fill="blue"/>
<path d="M985 1604 c-20 -49 -19 -64 5 -64 21 0 55 63 46 87 -10 25 -36 13
-51 -23z" fill="blue"/>
<path d="M615 1550 c-8 -13 43 -80 62 -80 27 0 26 31 -3 61 -29 30 -48 36 -59
19z" fill="blue"/>
<path d="M1163 1434 c-33 -14 -43 -37 -22 -50 18 -11 89 27 89 48 0 21 -21 22
-67 2z" fill="blue"/>
<path d="M535 1430 c-10 -16 12 -38 52 -51 28 -9 37 -9 43 1 13 20 2 35 -34
48 -40 15 -53 15 -61 2z" fill="blue"/>
<path d="M805 1134 c-45 -23 -66 -45 -86 -89 -37 -80 -13 -178 56 -231 30 -22
50 -29 101 -32 87 -6 145 27 180 101 31 66 30 101 -2 165 -34 69 -88 102 -165
102 -30 0 -67 -7 -84 -16z m164 -51 c34 -25 61 -79 61 -123 0 -68 -9 -67 -126
21 -60 45 -110 85 -112 89 -1 3 12 14 30 23 41 21 111 16 147 -10z m-119 -118
c44 -35 91 -72 105 -81 32 -21 32 -30 -5 -49 -60 -31 -148 -6 -182 53 -19 32
-25 142 -8 142 5 0 46 -29 90 -65z" fill="blue"/>
</g>
</svg>
