<?xml version="1.0" standalone="no"?>
<!DOCTYPE svg PUBLIC "-//W3C//DTD SVG 20010904//EN"
 "http://www.w3.org/TR/2001/REC-SVG-20010904/DTD/svg10.dtd">
<svg version="1.0" xmlns="http://www.w3.org/2000/svg"
 width="220.000000pt" height="208.000000pt" viewBox="0 0 220.000000 208.000000"
 preserveAspectRatio="xMidYMid meet">
<metadata>
Created by potrace 1.10, written by Peter Selinger 2001-2011
</metadata>
<g transform="translate(0.000000,208.000000) scale(0.100000,-0.100000)"
fill="#000000" stroke="none">
<path d="M1028 1640 l3 -140 -30 0 c-30 0 -31 2 -31 44 0 77 -63 144 -144 153
-30 4 -46 10 -46 19 0 8 -10 14 -25 14 -16 0 -25 -6 -25 -15 0 -12 -18 -15
-100 -15 -82 0 -100 3 -100 15 0 9 -9 15 -25 15 -16 0 -25 -6 -25 -15 0 -12
-17 -15 -89 -15 -88 0 -88 0 -84 -24 5 -24 7 -24 89 -20 l84 5 0 -27 c0 -15
10 -39 23 -53 l22 -26 -25 22 c-21 18 -39 22 -107 24 -46 1 -83 -1 -83 -5 0
-45 -5 -43 85 -38 74 4 85 2 85 -12 0 -10 9 -16 25 -16 16 0 25 6 25 15 0 12
18 15 100 15 82 0 100 -3 100 -15 0 -20 47 -20 52 0 3 14 5 14 26 0 25 -18 30
-45 7 -45 -9 0 -15 -9 -15 -25 0 -18 4 -23 15 -19 13 5 15 -29 15 -277 0 -267
-1 -286 -20 -314 -26 -39 -26 -95 0 -128 17 -21 20 -40 20 -126 0 -83 -3 -101
-15 -101 -9 0 -15 -9 -15 -25 0 -16 6 -25 15 -25 12 0 15 -15 15 -72 0 -62 -5
-81 -31 -128 -28 -51 -29 -56 -12 -67 9 -7 19 -13 22 -12 3 0 21 32 40 70 30
64 33 78 29 140 l-4 69 28 0 28 0 0 -72 c0 -62 -5 -81 -31 -128 -28 -51 -29
-56 -12 -67 9 -7 19 -13 22 -13 3 1 21 34 40 75 31 69 33 79 27 140 l-7 65 31
0 30 0 0 -68 c0 -56 -5 -78 -31 -127 -29 -56 -29 -60 -13 -72 10 -7 20 -13 23
-13 3 0 18 29 34 63 22 50 27 76 27 140 l0 77 30 0 30 0 0 -65 c0 -53 -6 -77
-30 -125 -16 -33 -30 -62 -30 -64 0 -3 9 -10 20 -16 17 -9 23 -4 50 49 26 52
30 71 30 141 l0 80 30 0 30 0 0 -65 c0 -53 -6 -77 -30 -125 -16 -33 -30 -62
-30 -64 0 -3 9 -10 20 -16 17 -9 23 -4 50 49 26 52 30 71 30 141 l0 80 29 0
c24 0 30 -5 34 -30 6 -30 61 -75 79 -64 4 3 8 -2 8 -10 0 -10 9 -16 25 -16 14
0 25 6 25 13 0 9 25 11 100 9 55 -2 100 -8 100 -13 0 -5 11 -9 25 -9 14 0 25
6 25 13 0 9 22 11 84 9 83 -3 83 -3 88 22 l5 26 -88 0 c-72 0 -89 3 -89 15 0
9 -9 15 -25 15 -16 0 -25 -6 -25 -15 0 -12 -18 -15 -100 -15 -82 0 -100 3
-100 15 0 9 -10 15 -26 15 -19 0 -25 -4 -20 -15 8 -21 -17 -19 -37 3 -21 23
-21 32 -2 32 9 0 15 9 15 25 0 16 -6 25 -15 25 -12 0 -15 18 -15 101 0 86 3
105 20 126 26 33 26 83 0 125 -15 24 -20 51 -20 101 0 64 -1 67 -20 55 -11 -7
-21 -19 -22 -28 -2 -9 -15 6 -31 34 -27 48 -27 50 -27 242 0 166 2 194 15 194
8 0 15 9 15 20 0 11 -7 20 -16 20 -13 0 -15 19 -12 140 l3 140 -29 0 -29 0 6
-140 5 -140 -29 0 -30 0 2 138 1 137 -23 3 -24 3 3 -141 4 -140 -32 0 -32 0 4
140 3 140 -25 0 -25 0 3 -140z m-298 -10 l0 -30 -100 0 -100 0 0 30 0 30 100
0 100 0 0 -30z m137 4 c32 -21 63 -73 63 -106 0 -24 -4 -28 -30 -28 -25 0 -30
4 -30 25 0 30 -43 75 -72 75 -21 0 -33 22 -24 46 7 19 55 13 93 -12z m63 -368
c0 -190 -1 -194 -26 -240 -14 -25 -26 -46 -27 -46 -1 0 -2 108 -2 240 l0 240
28 0 27 0 0 -194z m100 85 c0 -98 -2 -113 -26 -155 -14 -25 -27 -46 -29 -46
-2 0 -3 70 -4 155 l-1 155 30 0 30 0 0 -109z m100 10 l0 -100 -27 3 -28 3 -3
97 -3 96 31 0 30 0 0 -99z m99 -56 c-1 -85 -2 -155 -4 -155 -2 0 -15 21 -29
46 -24 42 -26 57 -26 155 l0 109 30 0 30 0 -1 -155z m-102 -93 c9 -6 55 -80
135 -222 11 -19 41 -70 65 -113 43 -75 44 -78 29 -102 l-16 -25 -240 0 -240 0
-16 25 c-15 24 -14 27 29 102 24 43 53 94 64 113 62 110 128 216 137 222 6 4
18 8 26 8 8 0 20 -4 27 -8z m-197 -607 l0 -95 -27 0 -28 0 0 95 0 95 28 0 27
0 0 -95z m100 0 l0 -95 -28 0 -28 0 -1 95 0 95 28 0 29 0 0 -95z m100 0 l0
-95 -30 0 -30 0 0 95 0 95 30 0 30 0 0 -95z m97 0 l0 -95 -28 0 -29 0 0 95 0
95 29 0 28 0 0 -95z m98 0 l0 -95 -27 0 -28 0 0 95 0 95 28 0 27 0 0 -95z" fill="blue"/>
<path d="M1065 1018 c-28 -44 -51 -85 -53 -90 -2 -4 19 -8 47 -8 l52 0 -35
-52 c-35 -51 -35 -52 -15 -66 11 -8 22 -12 24 -11 1 2 26 42 54 89 l51 85 -45
3 c-25 2 -45 6 -45 11 0 4 13 28 30 54 28 45 28 47 10 57 -10 5 -20 10 -22 10
-2 0 -26 -37 -53 -82z m22 -43 c1 -32 -1 -35 -25 -35 -21 0 -24 2 -12 10 8 5
12 10 7 10 -4 0 0 11 9 25 9 14 17 25 18 25 0 0 2 -16 3 -35z m63 -34 c0 -11
-5 -23 -11 -27 -15 -9 -33 12 -26 30 9 23 37 20 37 -3z" fill="blue"/>
<path d="M1420 1120 c0 -5 -15 -16 -34 -24 -33 -14 -56 -41 -56 -67 0 -8 4 -8
15 1 9 7 18 10 22 6 3 -3 15 2 25 11 16 14 21 15 28 3 12 -19 50 -23 50 -5 0
12 18 15 100 15 82 0 100 -3 100 -15 0 -9 9 -15 25 -15 16 0 25 6 25 15 0 12
16 15 84 15 82 0 84 1 89 26 l4 25 -88 -3 c-66 -2 -89 0 -89 10 0 6 -11 12
-25 12 -14 0 -25 -6 -25 -12 0 -17 -193 -15 -198 1 -5 14 -52 15 -52 1z" fill="blue"/>
</g>
</svg>
