<?xml version="1.0" standalone="no"?>
<!DOCTYPE svg PUBLIC "-//W3C//DTD SVG 20010904//EN"
 "http://www.w3.org/TR/2001/REC-SVG-20010904/DTD/svg10.dtd">
<svg version="1.0" xmlns="http://www.w3.org/2000/svg"
 width="216.000000pt" height="201.000000pt" viewBox="0 0 216.000000 201.000000"
 preserveAspectRatio="xMidYMid meet">
<metadata>
Created by potrace 1.10, written by Peter Selinger 2001-2011
</metadata>
<g transform="translate(0.000000,201.000000) scale(0.100000,-0.100000)"
fill="#000000" stroke="none">
<path d="M1029 1601 c-104 -21 -158 -79 -161 -175 -3 -100 -3 -103 -21 -120
-9 -10 -17 -24 -17 -33 0 -17 31 -73 41 -73 4 0 12 -20 18 -45 12 -48 58 -108
100 -130 117 -60 266 4 301 130 7 24 21 52 31 61 23 21 25 76 4 94 -11 9 -15
33 -15 87 0 123 -38 173 -149 199 -61 15 -77 15 -132 5z m163 -55 c26 -10 45
-22 42 -27 -3 -5 -1 -9 4 -9 15 0 35 -57 30 -85 -3 -13 0 -26 6 -29 6 -3 -16
-2 -49 1 -116 10 -210 13 -225 6 -8 -3 -28 -5 -45 -5 -26 1 -27 0 -10 -7 22
-11 6 -14 -19 -5 -19 7 -21 56 -5 103 10 29 20 36 44 31 6 -1 7 2 3 6 -4 4 6
14 23 23 40 22 141 20 201 -3z m32 -187 c33 -7 55 -16 53 -23 -3 -6 -10 -10
-18 -8 -93 22 -279 20 -341 -3 -18 -7 -34 10 -18 20 38 24 232 32 324 14z
m-140 -94 c142 -1 185 2 198 13 17 14 38 9 38 -9 0 -6 -11 -20 -24 -32 -13
-13 -27 -40 -31 -60 -16 -85 -83 -141 -169 -142 -94 0 -168 59 -182 147 -4 22
-14 43 -24 48 -20 11 -33 37 -24 51 3 6 12 5 21 -3 11 -9 66 -13 197 -13z" fill="blue"/>
<path d="M1441 1383 c-6 -35 -14 -76 -17 -93 -6 -28 -5 -30 26 -30 25 0 31 -3
26 -16 -3 -9 -6 -24 -6 -35 0 -15 -7 -19 -31 -19 l-30 0 28 -52 c15 -29 29
-55 30 -57 1 -1 19 13 40 32 21 19 49 44 63 56 l25 20 -32 1 -32 0 34 82 c19
45 35 83 35 83 0 0 -18 -1 -40 -3 -22 -2 -40 -2 -40 1 0 2 7 24 15 47 8 23 15
44 15 45 0 2 -22 3 -49 2 l-48 -2 -12 -62z m67 -41 c20 -21 26 -47 14 -67 -14
-26 -56 27 -48 59 8 31 11 32 34 8z" fill="blue"/>
<path d="M617 1065 c-5 -32 -2 -55 8 -75 8 -16 15 -52 15 -80 0 -48 1 -50 28
-50 26 0 27 2 27 48 -1 26 5 60 12 75 8 15 13 49 11 75 l-3 47 -46 3 -46 3 -6
-46z" fill="blue"/>
<path d="M1288 1019 c-32 -18 -79 -169 -99 -324 -6 -49 -14 -97 -17 -105 -3
-8 -6 -20 -7 -26 0 -6 -6 -22 -13 -35 -13 -24 -13 -24 -167 -21 l-155 3 0 54
0 55 35 0 c19 0 35 4 35 9 0 5 10 13 21 16 12 4 17 10 11 14 -7 4 -6 12 2 23
10 14 29 17 108 16 88 -1 95 -2 91 -19 -7 -27 7 -113 17 -103 4 5 11 44 15 87
l7 77 -191 0 -191 0 0 -135 0 -135 199 0 198 0 6 63 c10 102 55 332 78 392 19
50 41 76 55 63 2 -3 -7 -29 -21 -59 -39 -85 -95 -353 -95 -452 0 -35 23 -11
27 28 7 79 46 262 74 352 31 97 58 141 78 129 9 -6 9 -12 -3 -25 -20 -22 -60
-130 -84 -227 -25 -98 -54 -265 -48 -271 12 -12 24 11 31 54 11 78 62 285 85
345 25 68 52 104 69 94 9 -6 9 -12 -3 -24 -22 -25 -53 -103 -81 -204 -22 -76
-55 -228 -55 -250 0 -5 20 -8 44 -8 l45 0 3 109 c2 60 0 108 -3 106 -3 -2 -11
-29 -18 -60 -7 -30 -17 -55 -22 -55 -5 0 -9 2 -9 4 0 17 85 277 101 308 20 40
39 43 39 7 0 -11 -4 -18 -9 -14 -20 12 -21 -17 -2 -48 16 -26 24 -71 37 -195
13 -120 21 -162 31 -162 7 0 13 9 13 20 0 50 -32 315 -39 328 -5 9 -6 32 -4
51 4 27 -1 46 -18 72 -25 37 -100 82 -123 73 -7 -3 -24 -1 -37 5 -15 5 -32 5
-41 0z m-388 -349 c0 -16 -7 -20 -30 -20 -18 0 -30 5 -30 13 0 20 10 27 37 27
16 0 23 -6 23 -20z" fill="blue"/>
<path d="M891 964 c-100 -27 -180 -71 -167 -92 5 -8 19 -4 46 13 60 38 63 35
58 -50 l-5 -75 46 0 46 0 -3 89 -3 88 28 8 c25 6 34 0 89 -61 l61 -68 71 74
c40 41 72 78 72 82 0 11 -38 10 -42 -1 -1 -5 -24 -32 -50 -59 l-48 -51 -56 60
c-32 32 -64 59 -73 58 -9 0 -40 -7 -70 -15z" fill="blue"/>
<path d="M593 814 c4 -20 -2 -32 -22 -50 -25 -21 -26 -26 -26 -128 l0 -106 33
-31 c17 -16 32 -36 32 -44 0 -18 31 -35 63 -35 26 0 57 28 57 52 0 9 7 21 15
28 12 10 15 37 15 121 0 99 -2 108 -20 114 -24 8 -27 50 -5 59 8 3 15 15 15
26 0 18 -6 20 -81 20 l-81 0 5 -26z m67 -15 c0 7 5 9 10 6 6 -3 10 -17 10 -31
0 -27 -27 -34 -37 -8 -3 9 -12 13 -22 10 -13 -5 -13 -4 1 7 10 8 14 18 10 23
-4 4 1 2 11 -5 12 -10 17 -10 17 -2z m-45 -71 c0 -20 5 -22 58 -19 46 2 57 0
57 -13 0 -12 -10 -16 -35 -16 -26 0 -35 -4 -35 -16 0 -13 8 -15 35 -12 28 3
35 1 35 -13 0 -15 -6 -17 -36 -12 -32 5 -36 4 -32 -13 3 -15 10 -18 36 -16 24
3 32 0 32 -12 0 -12 -10 -16 -35 -16 -24 0 -35 -5 -35 -15 0 -10 11 -15 35
-15 44 0 46 -17 3 -25 -61 -11 -102 -2 -115 25 -20 38 -17 179 4 202 19 21 27
16 28 -14z" fill="blue"/>
</g>
</svg>
