<?xml version="1.0" standalone="no"?>
<!DOCTYPE svg PUBLIC "-//W3C//DTD SVG 20010904//EN"
 "http://www.w3.org/TR/2001/REC-SVG-20010904/DTD/svg10.dtd">
<svg version="1.0" xmlns="http://www.w3.org/2000/svg"
 width="300.000000pt" height="300.000000pt" viewBox="0 0 300.000000 300.000000"
 preserveAspectRatio="xMidYMid meet">
<metadata>
Created by potrace 1.10, written by Peter Selinger 2001-2011
</metadata>
<g transform="translate(0.000000,300.000000) scale(0.100000,-0.100000)"
fill="#000000" stroke="none">
<path d="M2570 2214 c-192 -18 -376 -59 -511 -112 -40 -17 -147 -64 -236 -106
-88 -41 -188 -83 -222 -93 l-61 -18 0 -92 0 -92 63 18 c85 25 185 65 291 118
263 132 460 188 706 202 63 3 114 9 113 14 -2 4 -3 43 -3 87 l0 80 -52 -2
c-29 0 -69 -3 -88 -4z m95 -44 c11 -18 8 -72 -4 -80 -7 -4 -52 -10 -99 -13
-211 -16 -418 -77 -669 -198 -146 -71 -297 -128 -308 -118 -12 13 -15 60 -5
78 5 11 33 27 62 37 29 9 108 43 176 75 179 85 248 115 337 144 171 55 493
103 510 75z" fill="blue"/>
<path d="M2749 2168 c0 -2 -1 -22 -3 -45 l-2 -43 37 0 c56 0 90 45 57 78 -10
10 -87 18 -89 10z" fill="blue"/>
<path d="M150 1585 l0 -415 675 0 675 0 2 415 3 415 -677 0 -678 0 0 -415z
m1308 363 c19 -19 17 -711 -2 -727 -16 -14 -1233 -21 -1253 -8 -10 6 -13 90
-13 362 0 194 3 360 6 369 6 14 70 16 628 16 470 0 625 -3 634 -12z" fill="blue"/>
<path d="M1540 1582 l0 -87 86 -18 c47 -10 151 -44 232 -77 219 -87 252 -94
427 -95 93 0 171 5 205 13 59 15 233 64 238 68 3 2 -48 154 -54 163 -2 1 -31
-6 -66 -18 -115 -38 -210 -54 -323 -54 -131 0 -181 12 -384 93 -128 51 -210
74 -328 94 l-33 6 0 -88z m204 3 c39 -12 121 -42 181 -65 143 -55 156 -59 245
-74 119 -19 272 -6 409 36 73 22 83 18 85 -38 1 -38 1 -38 -59 -56 -107 -33
-188 -46 -306 -47 -130 -2 -210 12 -335 60 -213 82 -288 109 -298 109 -6 0
-28 5 -48 11 -37 10 -38 11 -38 56 l0 45 46 -7 c25 -3 78 -17 118 -30z" fill="blue"/>
<path d="M2738 1533 c-10 -2 -18 -7 -18 -10 0 -15 24 -83 29 -83 19 0 71 43
71 58 0 36 -31 49 -82 35z" fill="blue"/>
<path d="M1538 1365 c3 -93 3 -94 33 -104 57 -20 120 -73 219 -186 114 -130
198 -195 305 -236 66 -26 261 -67 269 -58 2 2 6 43 10 92 l6 87 -34 0 c-62 0
-139 21 -223 61 -71 34 -92 50 -170 136 -159 175 -198 210 -286 252 -45 22
-93 42 -107 45 l-25 5 3 -94z m143 -5 c46 -27 96 -72 165 -147 189 -206 236
-238 407 -278 64 -16 79 -23 83 -41 8 -32 -12 -64 -41 -64 -49 0 -162 33 -235
68 -75 37 -139 94 -325 290 -33 35 -81 75 -107 88 -49 25 -67 60 -53 104 9 29
30 25 106 -20z" fill="blue"/>
<path d="M2410 897 c0 -8 -3 -29 -6 -46 -6 -31 -6 -31 34 -31 31 0 44 5 52 20
14 26 -3 60 -30 60 -10 0 -25 3 -34 6 -10 4 -16 1 -16 -9z" fill="blue"/>
</g>
</svg>
