<?xml version="1.0" standalone="no"?>
<!DOCTYPE svg PUBLIC "-//W3C//DTD SVG 20010904//EN"
 "http://www.w3.org/TR/2001/REC-SVG-20010904/DTD/svg10.dtd">
<svg version="1.0" xmlns="http://www.w3.org/2000/svg"
 width="225.000000pt" height="225.000000pt" viewBox="0 0 225.000000 225.000000"
 preserveAspectRatio="xMidYMid meet">
<metadata>
Created by potrace 1.10, written by Peter Selinger 2001-2011
</metadata>
<g transform="translate(0.000000,225.000000) scale(0.100000,-0.100000)"
fill="#000000" stroke="none">
<path d="M362 2168 c-17 -17 -17 -2069 0 -2086 17 -17 1509 -17 1526 0 17 17
17 2069 0 2086 -17 17 -1509 17 -1526 0z m1468 -1043 l0 -985 -705 0 -705 0 0
35 0 35 94 0 c67 0 97 4 105 14 8 9 11 73 9 207 l-3 194 -102 3 -103 3 0 494
0 494 103 3 102 3 3 194 c2 134 -1 198 -9 207 -8 10 -38 14 -105 14 l-94 0 0
35 0 35 705 0 705 0 0 -985z m-1267 704 l-1 -142 -71 -1 -71 -1 0 143 0 142
73 0 72 0 -2 -141z m0 -1408 l2 -141 -72 0 -73 0 0 143 0 142 71 -1 71 -1 1
-142z" fill="blue"/>
<path d="M1580 2005 l0 -35 55 0 55 0 0 -105 0 -105 35 0 35 0 0 128 c0 86 -4
132 -12 140 -7 7 -43 12 -90 12 l-78 0 0 -35z" fill="blue"/>
<path d="M927 1994 c-4 -4 -7 -49 -7 -100 0 -75 3 -93 16 -98 24 -9 367 -7
382 2 9 6 12 34 10 103 l-3 94 -196 3 c-107 1 -198 -1 -202 -4z m343 -94 l0
-40 -145 0 -145 0 0 40 0 40 145 0 145 0 0 -40z" fill="blue"/>
<path d="M747 1713 c-12 -12 -8 -178 5 -191 19 -19 731 -17 747 2 8 9 11 46 9
103 l-3 88 -376 3 c-206 1 -378 -1 -382 -5z m506 -48 c-6 -18 -34 -16 -41 3
-2 7 6 12 22 12 19 0 24 -4 19 -15z m-263 -47 l0 -38 -92 0 -93 0 2 37 c1 21
2 38 2 39 1 0 42 1 91 1 l90 0 0 -39z m208 -2 l3 -36 -75 0 -76 0 0 33 c0 19
2 36 4 38 2 2 35 3 73 2 l68 -1 3 -36z m242 2 l0 -38 -90 0 -90 0 0 38 0 38
90 0 90 0 0 -38z m-411 -41 c12 -15 5 -27 -16 -27 -7 0 -13 9 -13 20 0 23 13
26 29 7z m223 -18 c-26 -10 -45 0 -31 17 8 10 15 11 30 1 18 -11 18 -12 1 -18z" fill="blue"/>
<path d="M1690 1655 c0 -33 2 -35 35 -35 33 0 35 2 35 35 0 33 -2 35 -35 35
-33 0 -35 -2 -35 -35z" fill="blue"/>
<path d="M490 1515 c0 -33 2 -35 35 -35 33 0 35 2 35 35 0 33 -2 35 -35 35
-33 0 -35 -2 -35 -35z" fill="blue"/>
<path d="M607 1433 c-4 -3 -7 -64 -7 -134 0 -106 3 -128 16 -133 29 -11 169
-7 182 6 17 17 17 239 0 256 -13 13 -179 17 -191 5z m133 -133 l0 -70 -37 0
-38 0 0 70 0 70 38 0 37 0 0 -70z" fill="blue"/>
<path d="M887 1433 c-13 -12 -8 -248 5 -261 7 -7 43 -12 93 -12 50 0 86 5 93
12 17 17 17 239 0 256 -13 13 -179 17 -191 5z m133 -133 l0 -70 -35 0 -35 0 0
70 0 70 35 0 35 0 0 -70z" fill="blue"/>
<path d="M1172 1428 c-17 -17 -17 -239 0 -256 16 -16 170 -16 186 0 8 8 12 52
12 134 0 102 -3 123 -16 128 -29 11 -169 7 -182 -6z m128 -128 l0 -70 -35 0
-35 0 0 70 0 70 35 0 35 0 0 -70z" fill="blue"/>
<path d="M1452 1428 c-17 -17 -17 -239 0 -256 18 -18 172 -16 187 2 8 9 11 55
9 137 l-3 124 -90 3 c-62 2 -94 -1 -103 -10z m133 -128 l0 -70 -37 0 -38 0 0
70 0 70 38 0 37 0 0 -70z" fill="blue"/>
<path d="M751 1076 c-8 -9 -10 -127 -9 -417 l3 -404 380 0 380 0 3 404 c1 290
-1 408 -9 417 -9 11 -80 14 -374 14 -294 0 -365 -3 -374 -14z m689 -411 l0
-355 -315 0 -315 0 0 355 0 355 315 0 315 0 0 -355z" fill="blue"/>
<path d="M1073 943 c-14 -10 -193 -333 -193 -350 0 -24 42 -36 111 -31 l68 5
3 -86 c3 -79 5 -86 24 -89 18 -3 47 29 150 163 77 99 129 174 129 188 0 20 -6
22 -72 27 l-71 5 41 69 c56 93 50 100 -79 104 -54 1 -104 -1 -111 -5z m177
-49 c0 -8 -6 -14 -14 -14 -18 0 -29 27 -13 33 16 6 27 -1 27 -19z m-50 -21 c0
-5 -16 -33 -35 -63 -38 -59 -44 -94 -18 -104 27 -11 125 5 120 18 -3 8 6 12
24 12 16 0 29 -2 29 -5 0 -12 -17 -32 -26 -30 -24 4 -37 -7 -101 -91 l-68 -90
-5 52 -5 53 -71 5 -72 5 70 123 69 122 45 0 c24 0 44 -3 44 -7z m-68 -399
c-25 -34 -42 -30 -42 10 0 34 0 35 30 25 29 -11 29 -11 12 -35z" fill="blue"/>
<path d="M490 880 c0 -34 1 -36 35 -36 33 0 35 2 35 32 0 29 -3 32 -35 36 -34
4 -35 3 -35 -32z" fill="blue"/>
<path d="M490 735 c0 -33 2 -35 35 -35 33 0 35 2 35 35 0 33 -2 35 -35 35 -33
0 -35 -2 -35 -35z" fill="blue"/>
</g>
</svg>
